<svg width="138" height="24" viewBox="0 0 138 24" fill="fff" xmlns="http://www.w3.org/2000/svg">
<path d="M18.8842 4.8218V0H7.65937V17.8001H13.3887V4.8218H18.8842Z" fill="#fff"/>
<path fill-rule="evenodd" clip-rule="evenodd" d="M28.9177 12.7069L32.4135 17.8001H38.8152L34.5253 12.0455C37.2401 10.2244 37.8631 8.19949 37.8631 6.45338C37.8631 5.23504 37.5708 4.14044 36.9861 3.16958C36.4015 2.17968 35.5343 1.4087 34.3845 0.856645C33.2348 0.285549 31.8317 0 30.1752 0H21.1427V17.8001H26.8721V12.7069H28.9177ZM29.7075 8.88054H26.8721V4.68299H29.7075C30.4675 4.68299 31.0424 4.87335 31.4322 5.25408C31.8414 5.61577 32.046 6.12024 32.046 6.76748C32.046 7.4528 31.8512 7.9763 31.4614 8.338C31.0716 8.69969 30.487 8.88054 29.7075 8.88054Z" fill="#fff"/>
<path d="M45.3457 0V9.3479C45.3457 10.433 45.5991 11.2706 46.1057 11.8607C46.6319 12.4509 47.4212 12.7459 48.4735 12.7459C49.5258 12.7459 50.3151 12.4509 50.8412 11.8607C51.3869 11.2516 51.6597 10.4139 51.6597 9.3479V0H57.3891V9.3479C57.3891 11.1944 56.9896 12.7745 56.1906 14.088C55.3916 15.3825 54.3003 16.3629 52.9167 17.0291C51.5525 17.6764 50.0325 18 48.3566 18C46.6806 18 45.1801 17.6764 43.8549 17.0291C42.5493 16.3629 41.5164 15.3825 40.7564 14.088C40.0159 12.7935 39.6456 11.2135 39.6456 9.3479V0H45.3457Z" fill="#fff"/>
<path d="M76.0655 4.8218V0H59.4035V4.8218H64.8406V17.8001H70.57V4.8218H76.0655Z" fill="#fff"/>
<path d="M96.2723 0V17.8001H90.543V11.5839H83.5566V17.8001H77.8273V0H83.5566V6.73357H90.543V0H96.2723Z" fill="#fff"/>
<path d="M0 0H5.50013V4.82061H0V0Z" fill="#fff"/>
<path d="M103.747 13.0355H98.2383V17.8098H103.747V13.0355Z" fill="#fff"/>
</svg>
